# xmcd
#
# Track frame offsets: 
#        150
#        15963
#        29138
#        43700
#        61663
#        75800
#        89138
#        100100
#        114638
#        130150
#        145138
#        158275
#        170975
#        185725
#        199488
#        213388
#        236000
#        256088
#        267675
#        280388
#
# Disc length: 3941 seconds
#
# Revision: 2
# Processed by: cddbd v1.5.2PL0 Copyright (c) Steve Scherf et al.
# Submitted via: ExactAudioCopy v0.99pb5
#
DISCID=210f6314
DTITLE=Various Artist - Satin Dolls - The Women of Jazz
DYEAR=1994
DGENRE=Jazz
TTITLE0=Bessie Smith - Gimme a Pigfoot
TTITLE1=Alberta Hunter - Somebody Loves Me
TTITLE2=Mildred Bailey - Rockin' Chair
TTITLE3=Helen Humes, Count Basie - If I Could Be With You One Hour Ton
TTITLE3=ight
TTITLE4=Maxine Sullivan, John Kirby Sextet - St. Louis Blues
TTITLE5=Helen Ward - I'll Never Say 'Never' Again
TTITLE6=Ivie Anderson, Duke Ellington - All God's Chillun Got Rythym
TTITLE7=Ella Fitzgerald, Teddy Wilson - All My Life
TTITLE8=Lena Horne, Teddy Wilson - Prisoner of Love
TTITLE9=Billie Holiday - These Foolish Things ( Remind Me of You)
TTITLE10=Sarah Vaughan - Mean to Me
TTITLE11=Lee Wiley - I Gotta Right To Sing The Blues
TTITLE12=Peggy Lee, Benny Goodman - How Long Has This Been Going On
TTITLE13=Doris Day, Harry JamesI May Be Wrong
TTITLE14=Anita O'Day, Gene Krupa - Let Me Off Uptown
TTITLE15=Ernestine Anderson - I Love Being Here With You
TTITLE16=Dinah Washington - I Could Write A Book
TTITLE17=Annie Ross - Farmer's Market
TTITLE18=Carmen McCrae - Them There Eyes
TTITLE19=Betty Carter - Moonlight In Vermont
EXTD=
EXTT0=Bessie Smith
EXTT1=Alberta Hunter
EXTT2=Mildred Bailey
EXTT3=Helen Humes with the Count Bassie Orchestra
EXTT4=Maxine Sullivan with the John Kirby Sextet\n
EXTT5=Helen Ward
EXTT6=Ivie Anderson with Duke Ellington
EXTT7=Ella Fitzgerald
EXTT8=Lena Horne with Teddy Wilson Orchestra
EXTT9=Billie Holiday with Teddy Wilson Orchestra
EXTT10=Sarah Vaughn
EXTT11=Lee Wiley\n
EXTT12=Peggy Lee With Benny Goodman Orchestra
EXTT13=Doris Day
EXTT14=Anita O'Day with Gene Krupa
EXTT15=Ernestine Anderson
EXTT16=Dianah Washington
EXTT17=Annie Ross
EXTT18=Carmen McCrae
EXTT19=Betty Carter
PLAYORDER=
